<svg width="36" height="36" viewBox="0 0 36 36" fill="none" xmlns="http://www.w3.org/2000/svg">
<path d="M28.1881 13.9171C26.7911 8.40244 21.2162 4.98296 15.6653 6.27167C12.7177 6.95556 10.4716 8.64229 8.92811 11.245C7.8961 12.9862 7.46697 14.8862 7.50197 16.9022C7.50145 17.5168 7.72553 18.1105 8.13207 18.5714C8.31985 18.3009 8.5832 18.0916 8.88922 17.9699C8.65103 17.7414 8.50892 17.4308 8.49184 17.1012C8.39072 14.8149 8.96247 12.7191 10.3322 10.8723C11.8491 8.82769 13.869 7.55584 16.3797 7.11827C21.5617 6.21462 26.2531 9.61596 27.3356 14.5264C27.5165 15.3798 27.5806 16.2539 27.5262 17.1246C27.5027 17.4432 27.3645 17.7426 27.1373 17.9673C27.4394 18.0957 27.6982 18.3083 27.8828 18.5799C28.2503 18.1624 28.4843 17.6801 28.5083 17.1064C28.5574 16.0334 28.4495 14.9589 28.1881 13.9171Z" fill="#fff"/>
<path d="M15.6407 10.3044C15.6407 10.6026 15.6446 10.9008 15.6407 11.1983C15.6459 10.9008 15.6407 10.6026 15.6407 10.3044C15.6407 10.0756 15.6407 9.84611 15.6407 9.61728C15.6433 9.84611 15.6407 10.0756 15.6407 10.3044Z" fill="#fff"/>
<path d="M15.5118 10.5752C15.5118 10.4851 15.5118 10.3944 15.5118 10.3043C15.5118 10.2142 15.5118 10.1182 15.5118 10.0249C15.5118 9.88876 15.5118 9.75328 15.5118 9.61779C15.5118 9.54195 15.5118 9.4661 15.5118 9.39026C15.5066 9.15365 15.3588 8.98576 15.152 8.98187H15.1449C15.0567 8.98123 14.9719 9.01549 14.9089 9.07716C14.8678 9.12028 14.8357 9.17114 14.8145 9.22678C14.7932 9.28243 14.7832 9.34174 14.7851 9.40128C14.7806 10.0385 14.7806 10.6329 14.7851 11.2099C14.7851 11.4471 14.931 11.6085 15.1436 11.6105H15.1488C15.3653 11.6105 15.5085 11.4497 15.5124 11.1995C15.5137 10.9895 15.5124 10.7788 15.5118 10.5752Z" fill="#fff"/>
<path d="M18.3724 11.1885C18.3756 10.9817 18.3724 10.7704 18.3724 10.5662C18.3724 10.4761 18.3724 10.3866 18.3724 10.2965C18.3724 10.2064 18.3724 10.1143 18.3724 10.0229C18.3724 9.82004 18.3724 9.61001 18.3724 9.40451C18.3685 9.15559 18.2187 8.98186 18.0081 8.98186C17.7961 8.98186 17.6463 9.15688 17.645 9.40581C17.6405 9.9983 17.6405 10.5992 17.645 11.1924C17.645 11.4445 17.7889 11.6072 18.0081 11.6072C18.2259 11.6092 18.3685 11.4426 18.3724 11.1885Z" fill="#fff"/>
<path d="M21.237 10.7433V10.5722C21.237 10.4756 21.237 10.3777 21.237 10.2831C21.237 10.1884 21.237 10.1009 21.237 10.0102C21.237 9.88052 21.237 9.74568 21.237 9.61344C21.237 9.53954 21.237 9.46564 21.237 9.39174C21.2325 9.1506 21.0886 8.98529 20.8792 8.98011H20.8695C20.826 8.97962 20.7828 8.98773 20.7424 9.00397C20.702 9.02021 20.6652 9.04426 20.6342 9.07475C20.5933 9.11701 20.5613 9.16697 20.5399 9.22172C20.5186 9.27648 20.5083 9.33493 20.5097 9.39369C20.5045 9.99331 20.5045 10.602 20.5097 11.2023C20.5097 11.4434 20.6517 11.6023 20.8663 11.6055H20.8727C21.0899 11.6055 21.2319 11.446 21.2364 11.1971C21.2377 11.0344 21.2377 10.8691 21.237 10.7433Z" fill="#fff"/>
<path d="M27.5598 19.0933H26.981C27.086 19.2113 27.1223 19.3675 27.1229 19.6119C27.1229 20.1655 27.1229 20.7191 27.1229 21.2727V22.6424C27.1229 23.2008 27.1229 23.7589 27.1229 24.3169C27.1229 24.7389 26.9395 24.9651 26.5291 25.052L21.5137 26.1067C21.0515 26.2039 20.787 26.0535 20.6022 25.5881C20.5608 25.4824 20.5206 25.3754 20.4804 25.2685C20.3796 24.9791 20.2578 24.6974 20.1161 24.4258C19.613 23.5215 18.8248 23.117 17.7727 23.2226C16.821 23.3186 16.1391 23.8209 15.7456 24.7136C15.6613 24.9048 15.5887 25.1077 15.5181 25.3041C15.4785 25.4143 15.439 25.5245 15.3975 25.6341C15.2678 25.9725 15.0611 26.1352 14.7544 26.1352C14.679 26.1345 14.6038 26.126 14.5301 26.1099C14.0007 26.0001 13.4713 25.8888 12.9419 25.7761L12.2114 25.6218L11.6163 25.496C10.9162 25.3482 10.2159 25.2008 9.51533 25.0539C9.07323 24.9612 8.9008 24.7538 8.9008 24.3136C8.9008 22.7362 8.9008 21.1588 8.9008 19.5814C8.9008 19.3558 8.94099 19.2035 9.046 19.0875H8.4574C8.45101 18.9662 8.40133 18.8512 8.31738 18.7634C8.25255 18.6985 8.18773 18.6337 8.13003 18.5689C7.95328 18.8432 7.86046 19.1631 7.86296 19.4894C7.83703 21.1748 7.84675 22.8434 7.85907 24.4096C7.86555 25.2218 8.41785 25.8817 9.23399 26.0535L11.1353 26.4541C12.1889 26.6758 13.2423 26.8971 14.2955 27.1179C15.2756 27.3228 16.0373 26.8962 16.3835 25.9511C16.4185 25.8564 16.4522 25.7618 16.4859 25.6671C16.5365 25.5267 16.5877 25.3862 16.6395 25.2458C16.8709 24.6248 17.3785 24.2488 17.9957 24.2397H18.0203C18.6374 24.2397 19.1456 24.6131 19.3816 25.2432C19.4218 25.3489 19.46 25.4552 19.4983 25.5615C19.5702 25.7618 19.6441 25.9692 19.7284 26.1663C19.8742 26.5149 20.1356 26.8026 20.4687 26.9809C20.8018 27.1592 21.1862 27.2172 21.5571 27.1451C22.7797 26.8923 24.0204 26.6317 25.2242 26.3796L26.7152 26.0665C27.6357 25.872 28.1653 25.2276 28.1679 24.2935C28.1679 23.9046 28.1679 23.5156 28.1679 23.1267V21.9598C28.1679 21.7129 28.1679 21.4659 28.1679 21.2195C28.1679 20.6744 28.1679 20.1286 28.1679 19.5834C28.1747 19.2262 28.0752 18.8751 27.882 18.5747C27.8243 18.6395 27.7634 18.7044 27.6992 18.7692C27.615 18.8568 27.5655 18.972 27.5598 19.0933Z" fill="#fff"/>
<path d="M9.38399 18.8812C9.48123 18.843 9.57847 18.8061 9.6757 18.7691H8.31439C8.39835 18.8569 8.44803 18.9719 8.45441 19.0932H9.04302C9.13861 18.997 9.25537 18.9244 9.38399 18.8812Z" fill="#fff"/>
<path d="M26.9812 19.0925H27.5601C27.5658 18.9712 27.6153 18.856 27.6995 18.7684H26.3505C26.4399 18.8021 26.5294 18.8332 26.6188 18.8708C26.7554 18.9152 26.8795 18.9912 26.9812 19.0925Z" fill="#fff"/>
<path d="M9.67565 18.769C10.024 18.6393 10.3729 18.516 10.7226 18.3988H10.0471C9.6387 18.3988 9.26401 18.3191 8.9535 18.0358C8.92952 18.0144 8.90748 17.9918 8.88868 17.971C8.58266 18.0928 8.31931 18.302 8.13153 18.5726C8.18987 18.6374 8.25275 18.7061 8.31887 18.7671L9.67565 18.769Z" fill="#fff"/>
<path d="M27.1368 17.9668C26.9205 18.1932 26.6327 18.3381 26.322 18.3771C26.1811 18.3909 26.0396 18.3976 25.898 18.3972H25.2809C25.6379 18.5139 25.9938 18.6388 26.3486 18.7719H27.6976C27.7624 18.7071 27.8227 18.6422 27.8804 18.5774C27.6961 18.3069 27.438 18.095 27.1368 17.9668Z" fill="#fff"/>
<path d="M10.0469 18.399H10.7211C12.0475 17.9594 13.4096 17.636 14.7921 17.4324C16.725 17.1512 18.6866 17.1257 20.6262 17.3566C22.2082 17.5494 23.7672 17.8979 25.2806 18.397H25.8958C26.0374 18.3974 26.1789 18.3907 26.3198 18.3769C26.6305 18.3379 26.9183 18.193 27.1346 17.9666C27.1041 17.953 27.0698 17.9387 27.0413 17.9264C24.6873 16.9955 22.2069 16.423 19.6831 16.228C17.9825 16.1048 16.2735 16.17 14.5872 16.4225C12.6507 16.7108 10.7541 17.2231 8.93582 17.9491C8.91832 17.9556 8.90212 17.9633 8.88461 17.9711C8.90665 17.9932 8.92869 18.0158 8.94944 18.0359C9.26513 18.3192 9.63982 18.3996 10.0469 18.399Z" fill="#fff"/>
</svg>
