<svg width="36" height="36" viewBox="0 0 36 36" fill="none" xmlns="http://www.w3.org/2000/svg">
<path d="M28.2834 19.274C28.0003 18.3783 27.3831 17.7604 26.4476 17.4369C25.3987 17.0742 24.2757 16.9456 22.9126 17.0305L22.7276 17.0424C22.1117 17.0815 21.4745 17.1213 20.85 17.1253C19.0334 17.1365 17.1864 17.1326 15.3996 17.1253H14.7453C14.5186 17.121 14.2924 17.104 14.0677 17.0742C12.5806 16.9032 11.2732 17.0271 10.0699 17.4528C9.20273 17.7597 8.61466 18.3365 8.32096 19.1679C7.93908 19.9191 8.00007 21.5321 8.00869 21.7144C8.03241 22.2221 8.12154 22.7246 8.27389 23.2095C8.4206 23.7164 8.68442 24.1818 9.04408 24.5681C9.40373 24.9543 9.84915 25.2507 10.3444 25.4331C10.8444 25.6183 11.3809 25.6833 11.9107 25.6229C12.4404 25.5626 12.9486 25.3786 13.3941 25.0857C14.1897 24.5699 14.9236 23.8976 15.6297 23.0305C16.3185 22.1845 16.9623 21.3385 17.2653 20.297C17.6856 20.2194 17.6684 19.8223 17.6631 19.689C17.6631 19.6539 17.6631 19.6174 17.6631 19.5776C17.6675 19.5076 17.6657 19.4372 17.6578 19.3675C17.6511 19.3204 17.6471 19.2919 17.7466 19.2621C18.1005 19.1527 18.4793 19.1527 18.8332 19.2621C18.9181 19.2886 18.924 19.3158 18.9168 19.3768C18.9072 19.4808 18.9052 19.5854 18.9108 19.6897C18.9108 19.7308 18.9108 19.7712 18.9108 19.8117C18.906 19.9204 18.939 20.0275 19.0041 20.1147C19.0692 20.202 19.1625 20.264 19.2681 20.2903C19.2826 20.2957 19.2961 20.3036 19.3079 20.3136C19.4916 20.9706 19.8423 21.5321 20.1618 21.9949C21.1749 23.4627 22.1203 24.4221 23.2281 25.1056C23.8281 25.4762 24.4341 25.6618 25.0414 25.6618C25.5988 25.655 26.1457 25.5092 26.6326 25.2375C27.7225 24.6541 28.3384 23.6875 28.5141 22.2839C28.5227 22.215 28.7508 20.478 28.2834 19.274ZM16.4326 20.0086C16.3 20.6 15.9758 21.0979 15.6284 21.5997C14.9375 22.5942 14.2155 23.3805 13.4213 24.005C13.0195 24.3206 12.4699 24.6926 11.7864 24.7628C10.652 24.8782 9.55543 24.2132 9.17886 23.1816C8.74038 22.0033 8.71862 20.7104 9.1172 19.518C9.34129 18.8271 9.83322 18.4075 10.7123 18.1569C11.4569 17.9447 12.2153 17.8917 12.8604 17.8705C13.9755 17.9003 14.8102 18.0282 15.5667 18.2862C16.4253 18.5772 16.6547 19.028 16.4326 20.0086ZM19.7402 18.0097C19.5779 18.1637 19.4468 18.3476 19.3543 18.5513C19.0221 18.3901 18.6582 18.3047 18.2889 18.3014C17.9157 18.3053 17.5479 18.3904 17.2109 18.5507C17.1186 18.347 16.9875 18.1633 16.825 18.0097H19.7402ZM20.0982 19.099C20.1236 18.9618 20.1815 18.8327 20.2673 18.7226C20.353 18.6125 20.464 18.5247 20.5908 18.4665C21.2332 18.139 21.93 18.0203 22.5267 17.9467C22.7919 17.9142 23.0631 17.8976 23.3031 17.8804C23.4038 17.8744 23.5019 17.8685 23.5901 17.8618C24.4387 17.8897 25.3424 17.9586 26.2023 18.2709C26.8394 18.5016 27.2425 18.8974 27.4354 19.4808C27.8763 20.8161 27.8372 22.1122 27.3181 23.3334C27.0768 23.9003 26.5583 24.381 25.9298 24.6196C25.6189 24.7402 25.2864 24.7951 24.9532 24.781C24.6201 24.7668 24.2934 24.6839 23.9939 24.5374C23.3694 24.2411 22.8569 23.7829 22.4803 23.417C21.5833 22.5438 20.9037 21.6587 20.4038 20.7107C20.0936 20.1226 19.9961 19.6101 20.0995 19.099H20.0982Z" fill="#fff"/>
<path d="M9.82381 20.7639C9.80657 21.0291 9.89011 21.1657 10.0645 21.1763C10.2388 21.1869 10.3297 21.057 10.3555 20.7938C10.4278 20.1255 10.7825 19.4791 11.5946 19.375C11.7935 19.3498 11.9036 19.2013 11.8704 19.0508C11.834 18.8824 11.6928 18.8101 11.4773 18.8519C10.518 19.0262 9.89077 19.7555 9.82381 20.7639Z" fill="#fff"/>
<path d="M27.6951 20.7939C27.6288 19.7583 27.0036 19.0277 26.027 18.8447C25.8381 18.8089 25.7095 18.8613 25.6498 19.0436C25.6014 19.1914 25.7128 19.3486 25.915 19.3751C26.7212 19.4752 27.0971 20.1256 27.1647 20.8336C27.1859 21.0584 27.2867 21.1857 27.4458 21.1811C27.6169 21.1724 27.7097 21.0312 27.6951 20.7939Z" fill="#fff"/>
<path d="M9.82378 20.7639C9.89008 19.7542 10.5179 19.0276 11.4773 18.8499C11.6927 18.8101 11.8339 18.8824 11.8704 19.0488C11.9036 19.1993 11.7942 19.3478 11.5946 19.373C10.7825 19.4771 10.4278 20.1235 10.3555 20.7918C10.327 21.057 10.2342 21.1849 10.0644 21.1743C9.89472 21.1637 9.80456 21.0278 9.82378 20.7639Z" fill="#fff"/>
<path d="M27.6951 20.7936C27.7097 21.0309 27.6169 21.1721 27.4439 21.1768C27.2847 21.1814 27.184 21.0541 27.1628 20.8294C27.0965 20.1226 26.7192 19.4722 25.913 19.3708C25.7141 19.3463 25.6014 19.1891 25.6478 19.0393C25.7075 18.8576 25.8361 18.8053 26.0251 18.8404C27.0036 19.026 27.6322 19.7553 27.6951 20.7936Z" fill="#fff"/>
<path d="M8.74342 15.1769C8.10694 14.7997 7.54508 14.3089 7.08575 13.7289C6.97732 13.5901 6.97262 13.4928 7.06654 13.3391C7.77563 12.1788 8.79592 11.3724 9.98058 10.7512C11.3569 10.0293 12.831 9.60757 14.3546 9.34033C16.5673 8.9527 18.7944 8.90915 21.0207 9.14395C23.1454 9.36808 25.2044 9.85901 27.0857 10.9207C28.1316 11.5111 29.032 12.2672 29.6749 13.3024C29.7829 13.4762 29.7799 13.5961 29.6523 13.7588C29.222 14.2985 28.6984 14.7567 28.1064 15.1116C28.045 15.1492 27.9182 15.1543 27.8623 15.1159C25.8776 13.7498 23.6231 13.1871 21.2794 12.8896C19.315 12.6388 17.3264 12.6426 15.363 12.9007C13.6263 13.1287 11.9187 13.4954 10.3353 14.2903C9.80043 14.5592 9.28772 14.8721 8.74342 15.1769Z" stroke="#fff" stroke-miterlimit="10"/>
</svg>
