<svg width="36" height="36" viewBox="0 0 36 36" fill="none" xmlns="http://www.w3.org/2000/svg">
<path d="M28.6 18.8935C28.6 18.4517 28.3744 18.1179 27.9279 17.9064C27.9138 17.897 27.9091 17.8876 27.9091 17.8829C27.8903 17.7278 27.8762 17.568 27.8668 17.4176C27.8527 17.2672 27.8433 17.1121 27.8245 16.957C27.6694 15.6269 27.2088 14.3532 26.4427 13.1735C25.8411 12.2287 25.1125 11.3921 24.29 10.4756C23.2419 9.30058 22.1891 8.00336 21.6063 6.45703C21.3478 5.76611 20.5769 5.2397 19.5946 5.0893C19.1199 5.0188 18.5653 5 18.1846 5C17.489 5 16.7887 5.0517 16.4785 5.1222C15.4586 5.36661 14.8334 5.83192 14.5185 6.59333C14.4997 6.64033 14.4809 6.68263 14.4621 6.72963C14.3399 7.02104 14.2177 7.31714 14.0579 7.59445C13.8699 7.91876 13.6584 8.24306 13.4469 8.55327C13.367 8.67077 13.2871 8.79297 13.2072 8.91517C13.2025 8.92457 13.1931 8.93397 13.1884 8.94337C12.8124 9.37578 12.2202 10.0714 11.6985 10.6918C11.3554 11.1007 11.0546 11.4485 10.8807 11.6553C10.0582 12.6094 9.42364 13.6012 8.99593 14.6117C8.54942 15.6645 8.30972 16.769 8.28622 17.897C8.28152 17.9017 8.27682 17.9111 8.26272 17.9158C7.82091 18.132 7.60001 18.4564 7.60001 18.8794C7.60471 20.2001 7.60471 21.5396 7.60001 22.8603C7.60001 23.2457 7.79741 23.5748 8.13112 23.7628C8.13112 23.7769 8.13112 23.7863 8.13112 23.8004C8.12642 23.9837 7.99951 27.3583 8.07942 27.9082C8.17812 28.5709 9.02413 29.0786 9.81375 29.2337C11.6515 29.5956 13.5174 29.9481 15.3599 30.2912C15.5056 30.3194 15.6513 30.3335 15.8017 30.3335C16.5678 30.3335 17.2822 29.9622 17.6159 29.3888C17.6958 29.2525 17.771 29.1115 17.8462 28.9752C17.8932 28.8812 17.9449 28.7872 17.9966 28.6932C18.0342 28.7637 18.0765 28.8389 18.1094 28.9094C18.1893 29.0645 18.2739 29.2196 18.3679 29.3747C18.7439 29.9998 19.3455 30.3288 20.1022 30.3288C20.1492 30.3288 20.1962 30.3288 20.2385 30.3241C20.6334 30.3053 21.0235 30.2254 21.3995 30.1549C21.5123 30.1314 21.6251 30.1126 21.7379 30.0891C22.0434 30.0327 22.3489 29.9763 22.6544 29.9199C23.7918 29.7084 24.9621 29.4922 26.1137 29.2666C27.0678 29.0786 27.7023 28.585 27.9514 27.8377V27.833V27.8283C28.0313 27.551 28.0736 27.269 28.0736 26.9823L28.0313 23.791C28.0313 23.7863 28.0313 23.7816 28.0313 23.7769C28.3838 23.5936 28.5906 23.2551 28.5906 22.8509C28.5906 22.2963 28.5906 21.7417 28.5906 21.1871C28.6 20.4304 28.6 19.6549 28.6 18.8935ZM26.9127 26.7896V27.316C26.9127 27.6685 26.7529 28.1244 25.9774 28.2983C25.7282 28.3547 25.4744 28.4064 25.2488 28.4487L22.1891 23.9978H26.7012C26.7858 23.9978 26.8704 23.9978 26.9174 24.0025C26.9221 24.0401 26.9221 24.0965 26.9221 24.1482C26.9221 24.1999 26.9221 24.2516 26.9221 24.3033C26.9221 24.4067 26.9221 24.5148 26.9221 24.6229V24.6276V24.6323C26.9221 24.6417 26.9221 24.6511 26.9221 24.6511L26.9033 24.6887V24.731V25.6428V26.6016V26.7896H26.9127ZM20.9812 23.9931L24.1725 28.6462L23.82 28.712L20.6005 23.9931H20.9812ZM9.32024 23.0013V23.006C9.30614 23.006 9.29204 23.006 9.28264 23.006C9.20744 23.006 9.13694 23.006 9.06643 23.006C8.95833 23.006 8.87373 23.0013 8.79383 22.9966C8.69513 22.9919 8.63403 22.959 8.63403 22.8086V20.9427V18.9405C8.63403 18.8794 8.63873 18.7995 8.67163 18.7713C8.69043 18.7525 8.75153 18.7243 8.92073 18.7243H8.92543H9.37194H9.51294L15.1671 18.729H15.5573H15.6983L20.9342 18.7337H21.3243H21.5123H25.8129C25.8176 18.7337 25.8223 18.7337 25.8317 18.7337L25.8505 18.7384H25.8692H26.8516H26.8845L26.9174 18.729C26.9268 18.7243 26.9362 18.7243 26.9456 18.7243C26.9879 18.7243 27.0302 18.7243 27.0725 18.7243C27.1148 18.7243 27.1571 18.7243 27.1947 18.7243C27.2699 18.7243 27.3639 18.7243 27.4579 18.729C27.519 18.7337 27.5613 18.7525 27.5848 18.8277C27.5942 18.87 27.5942 18.9123 27.5942 18.9546V18.9593V18.964V22.7475C27.5942 22.8556 27.5801 22.9261 27.5519 22.9496C27.5237 22.9731 27.4532 22.9966 27.2558 22.9966H27.2323H26.9503H26.9456L9.52704 22.9872L9.32024 23.0013ZM26.8328 17.7889H26.8281C23.9328 17.7889 22.0951 17.7889 21.3713 17.7936C21.3384 17.7936 21.3055 17.7983 21.2726 17.8077C18.7204 17.8077 16.1354 17.803 13.5879 17.803C12.1873 17.803 10.7867 17.803 9.39074 17.803H9.33434C9.37194 17.0181 9.51764 16.2332 9.76205 15.4765C10.124 14.3955 10.7538 13.3474 11.7502 12.1676C11.9758 11.9044 12.4364 11.3592 12.9064 10.8046C13.4187 10.203 13.9404 9.58729 14.1848 9.30058C14.2271 9.25358 14.2553 9.20188 14.2835 9.14548C14.7817 8.44517 15.186 7.70725 15.4868 6.94114C15.7218 6.33483 16.2811 6.00582 17.0566 6.00582C17.4091 6.00582 17.7569 6.00582 18.1094 6.00582C18.4619 6.00582 18.8097 6.00582 19.1622 6.00582C19.9142 6.00582 20.4594 6.33012 20.7415 6.94584C21.0188 7.58035 21.3478 8.20546 21.7097 8.80707C22.2549 9.68599 22.974 10.485 23.6649 11.2558C23.7824 11.3827 23.8952 11.5143 24.0127 11.6412C25.6483 13.4743 26.4897 15.0206 26.7435 16.6562C26.7905 16.9523 26.8187 17.2437 26.8516 17.5539C26.861 17.6291 26.8657 17.6996 26.8751 17.7748C26.8704 17.7795 26.8563 17.7889 26.8328 17.7889ZM9.09463 26.1034L9.07584 24.6088C9.08524 24.402 9.08053 24.1952 9.08053 23.9931H9.08523C9.08993 23.9931 9.09464 23.9931 9.09934 23.9931C9.12754 23.9931 9.16044 23.9931 9.19804 23.9931C9.23094 23.9931 9.25914 23.9931 9.29204 23.9931C9.32024 23.9931 9.35314 23.9931 9.38134 23.9931H19.3972L22.7531 28.9141C22.0105 29.0551 21.2632 29.1914 20.5159 29.3324C20.3937 29.3559 20.2761 29.3653 20.1727 29.3653C19.7779 29.3653 19.5053 29.2055 19.3126 28.8577C19.1669 28.5991 19.0259 28.3312 18.8896 28.0727L18.8614 28.021C18.6828 27.692 18.3961 27.5228 18.0107 27.5228C17.6206 27.5228 17.3339 27.692 17.16 28.0257L17.0895 28.162C16.9626 28.4064 16.831 28.6556 16.69 28.9C16.5067 29.2196 16.2341 29.3747 15.8628 29.3747C15.7735 29.3747 15.6748 29.3653 15.5761 29.3465C13.743 29.0081 11.8818 28.6509 10.0535 28.2936C9.44714 28.1761 9.09934 27.8142 9.09934 27.3019C9.08994 26.8554 9.08993 26.4653 9.09463 26.1034Z" fill="#fff"/>
</svg>
