<svg width="36" height="36" viewBox="0 0 36 36" fill="none" xmlns="http://www.w3.org/2000/svg">
<path d="M24.0095 15.3394H23.6349C23.7028 15.4158 23.7263 15.5169 23.7267 15.6751C23.7267 16.0334 23.7267 16.3917 23.7267 16.7501V17.6366C23.7267 17.998 23.7267 18.3593 23.7267 18.7204C23.7267 18.9936 23.608 19.14 23.3424 19.1962L20.0961 19.8789C19.797 19.9418 19.6258 19.8445 19.5062 19.5432C19.4793 19.4748 19.4533 19.4056 19.4273 19.3364C19.3621 19.149 19.2833 18.9667 19.1915 18.7909C18.8659 18.2056 18.3557 17.9438 17.6747 18.0122C17.0588 18.0743 16.6174 18.3994 16.3627 18.9772C16.3081 19.101 16.2612 19.2323 16.2154 19.3594C16.1898 19.4308 16.1642 19.5021 16.1374 19.573C16.0535 19.792 15.9196 19.8973 15.7212 19.8973C15.6723 19.8969 15.6237 19.8914 15.576 19.881C15.2333 19.8099 14.8907 19.7379 14.548 19.6649L14.0751 19.565L13.69 19.4836C13.2368 19.388 12.7835 19.2926 12.3301 19.1975C12.044 19.1375 11.9323 19.0032 11.9323 18.7183C11.9323 17.6973 11.9323 16.6764 11.9323 15.6554C11.9323 15.5094 11.9584 15.4108 12.0263 15.3357H11.6453C11.6412 15.2571 11.6091 15.1827 11.5547 15.1259C11.5128 15.0839 11.4708 15.042 11.4335 15C11.3191 15.1775 11.259 15.3846 11.2606 15.5958C11.2438 16.6867 11.2501 17.7667 11.2581 18.7804C11.2623 19.3062 11.6198 19.7333 12.148 19.8445L13.3786 20.1038C14.0606 20.2473 14.7424 20.3905 15.4241 20.5334C16.0585 20.666 16.5515 20.3899 16.7756 19.7782C16.7982 19.7169 16.82 19.6557 16.8419 19.5944C16.8746 19.5035 16.9077 19.4126 16.9413 19.3217C17.0911 18.9197 17.4196 18.6764 17.8191 18.6705H17.835C18.2344 18.6705 18.5634 18.9122 18.7161 19.32C18.7421 19.3884 18.7669 19.4572 18.7916 19.526C18.8382 19.6557 18.886 19.7899 18.9406 19.9175C19.0349 20.1431 19.2042 20.3293 19.4198 20.4447C19.6354 20.5601 19.8842 20.5977 20.1242 20.551C20.9156 20.3874 21.7186 20.2187 22.4978 20.0555L23.4628 19.8529C24.0586 19.727 24.4014 19.3099 24.4031 18.7053C24.4031 18.4536 24.4031 18.2018 24.4031 17.9501V17.1948C24.4031 17.035 24.4031 16.8751 24.4031 16.7157C24.4031 16.3628 24.4031 16.0095 24.4031 15.6566C24.4075 15.4255 24.3431 15.1982 24.2181 15.0038C24.1807 15.0457 24.1413 15.0877 24.0997 15.1297C24.0453 15.1864 24.0132 15.2609 24.0095 15.3394Z" fill="#fff"/>
<mask id="path-3-outside-1_1_74" maskUnits="userSpaceOnUse" x="9.22559" y="20.5" width="17" height="11" fill="black">
<rect fill="#fff" x="9.22559" y="20.5" width="17" height="11"/>
<path d="M25.3299 23.0262L25.4424 22.8575V22.6912C25.3081 22.4492 25.1992 22.4064 24.9505 22.4931C24.1981 22.751 23.4088 22.7284 22.6112 22.4262C22.3288 22.3193 22.0445 22.2037 21.7696 22.0924C21.4528 21.9641 21.1276 21.8318 20.8037 21.7118C19.9978 21.4132 19.2814 21.4302 18.6133 21.7637C18.4365 21.8558 18.2647 21.9571 18.0984 22.067C18.0192 22.1169 17.94 22.1684 17.858 22.2179L17.8129 22.2452L17.7337 22.189C17.7052 22.1688 17.6739 22.1462 17.6434 22.1225C16.8347 21.5007 15.9528 21.3463 15.0209 21.6627C14.6882 21.7759 14.356 21.9138 14.0348 22.0468C13.8677 22.1165 13.6946 22.1882 13.5231 22.2559C13.0051 22.4603 12.4491 22.6603 11.8495 22.669C11.4508 22.6733 11.0543 22.6099 10.6769 22.4813C10.5157 22.4278 10.3834 22.4623 10.2939 22.5799C10.2044 22.6975 10.2012 22.829 10.2939 22.9759C10.3628 23.084 10.4373 23.1921 10.5093 23.2967C10.5707 23.3862 10.6345 23.4785 10.6947 23.5715C10.7303 23.6287 10.7482 23.6951 10.7462 23.7624C10.7426 23.8709 10.7347 23.981 10.7268 24.0872C10.7068 24.288 10.7024 24.49 10.7137 24.6915C10.7509 25.2372 10.987 25.7504 11.377 26.1338C11.6612 26.4254 12.0442 26.6 12.4507 26.6233L12.4994 26.6261L12.5188 26.6709C12.5212 26.6768 12.5235 26.6811 12.5251 26.6847C12.5337 26.6995 12.539 26.716 12.5406 26.733C12.5453 26.7833 12.5489 26.8344 12.5517 26.8851C12.5786 27.3778 12.7045 27.7916 12.9362 28.1496C13.3394 28.7726 13.8546 29.0553 14.5104 29.0142C14.5935 29.0066 14.6759 28.9934 14.7571 28.9745C14.7908 28.9674 14.8225 28.9611 14.8514 28.9559L14.9076 28.9464L14.9346 28.9967C14.9845 29.0898 15.0312 29.1848 15.0763 29.2763C15.1651 29.4702 15.2698 29.6565 15.3892 29.8331C15.6759 30.2292 16.072 30.4834 16.5048 30.548C16.9155 30.6086 17.3218 30.4969 17.6806 30.224C17.7872 30.1448 17.8786 30.1448 17.9836 30.2268C18.2662 30.4571 18.6237 30.5753 18.9879 30.5587C19.519 30.5345 19.9515 30.2905 20.2742 29.8331C20.3931 29.6542 20.4982 29.4664 20.5887 29.2716C20.6283 29.1947 20.6679 29.1163 20.7075 29.0375L20.6976 29.0161L20.7277 28.9765C20.7379 28.9642 20.7514 28.955 20.7666 28.95C20.7817 28.9449 20.798 28.9443 20.8136 28.948L20.9324 28.9536L20.9221 28.9726C21.2444 29.0565 21.5857 29.0276 21.8892 28.8906C22.4809 28.6237 22.8559 28.1381 23.0377 27.4019C23.0735 27.2424 23.0999 27.081 23.1169 26.9184C23.126 26.8435 23.1355 26.7663 23.1466 26.6903L23.1557 26.6285L23.2179 26.6229C23.8028 26.5722 24.2662 26.278 24.5953 25.7489C24.9517 25.1762 25.0614 24.5394 24.9307 23.8012C24.9192 23.7172 24.9368 23.6318 24.9806 23.5593C25.0935 23.3807 25.2135 23.2005 25.3299 23.0262ZM11.5406 23.3034C12.5101 23.368 13.3802 23.0072 14.2217 22.6579L14.3956 22.5858C14.8756 22.3878 15.2498 22.2627 15.6102 22.1799C16.1472 22.0563 16.6854 22.2033 17.2549 22.6286C17.3341 22.6888 17.4133 22.7541 17.4878 22.8171L17.5717 22.8872C17.7666 23.0488 17.8858 23.0492 18.1044 22.8872L18.144 22.8579C18.4105 22.6599 18.6857 22.4591 18.9836 22.3035C19.3705 22.1019 19.8057 22.0714 20.2417 22.2147C20.6778 22.3581 21.1364 22.5316 21.7011 22.7621C22.4444 23.0666 23.2456 23.3593 24.1347 23.3007L24.301 23.29L24.2044 23.4258L24.1814 23.4595C24.1691 23.4805 24.1542 23.4999 24.1371 23.5173C23.3529 24.2697 22.5237 24.7054 21.6025 24.8527C21.3547 24.8928 21.1042 24.9131 20.8532 24.9137C19.8421 24.9137 18.9392 24.5636 18.1602 23.8678C17.8858 23.6222 17.7709 23.6222 17.5135 23.8678C16.9195 24.4329 16.1844 24.7636 15.2684 24.8784C13.9116 25.0487 12.68 24.5937 11.503 23.4888C11.4899 23.4754 11.4799 23.4593 11.4737 23.4416C11.4713 23.4349 11.4677 23.4262 11.4622 23.4143L11.4064 23.2931L11.5406 23.3034ZM24.3497 24.4048C24.3418 24.4559 24.3351 24.505 24.3287 24.5521C24.3145 24.6531 24.3014 24.7501 24.2816 24.8432C24.2271 25.1222 24.1014 25.3825 23.9169 25.5988C23.6995 25.8523 23.4337 25.9826 23.1276 25.9857C22.7193 25.9901 22.4773 26.3532 22.4793 26.7017C22.4817 27.1374 22.3882 27.4978 22.1942 27.8027C21.9169 28.2383 21.5767 28.4217 21.1534 28.3663C21.0673 28.3545 20.9832 28.331 20.9035 28.2965C20.8309 28.2659 20.7526 28.2511 20.6738 28.2529C20.5951 28.2548 20.5176 28.2733 20.4465 28.3072C20.3657 28.3458 20.2937 28.4005 20.2349 28.468C20.1761 28.5355 20.1318 28.6144 20.1047 28.6997C20.0227 28.967 19.9293 29.2704 19.7198 29.5215C19.5218 29.7591 19.2802 29.8969 19.0236 29.9175C18.7669 29.9381 18.5119 29.843 18.2806 29.6426C17.9717 29.3749 17.7064 29.3741 17.3935 29.6426C17.1753 29.8284 16.94 29.9246 16.7076 29.9246C16.6776 29.9246 16.6475 29.923 16.6177 29.9199C16.365 29.8925 16.1333 29.7496 15.9488 29.506C15.7951 29.304 15.6981 29.0637 15.632 28.8763C15.5472 28.6427 15.4676 28.4217 15.2312 28.3124C15.1082 28.2516 14.967 28.2389 14.8352 28.2767C14.0827 28.4886 13.5607 28.2074 13.3227 27.4641C13.2435 27.2166 13.2186 26.9532 13.198 26.6823C13.1738 26.3568 12.9952 26.1022 12.733 26.0182C12.6731 26.0003 12.611 25.9906 12.5485 25.9893C12.156 25.9731 11.8523 25.7845 11.6202 25.4131C11.4436 25.1303 11.3517 24.8095 11.3311 24.4036L11.3224 24.2361L11.457 24.3359C12.5093 25.1141 13.5691 25.5287 14.6063 25.5679C15.6625 25.6075 16.7361 25.2594 17.7959 24.5331L17.841 24.5022L17.8858 24.5331C18.9404 25.261 20.0109 25.6087 21.0679 25.5683C22.1051 25.5287 23.1668 25.1117 24.2266 24.3303L24.3806 24.2167L24.3497 24.4048Z"/>
</mask>
<path d="M25.3299 23.0262L25.4424 22.8575V22.6912C25.3081 22.4492 25.1992 22.4064 24.9505 22.4931C24.1981 22.751 23.4088 22.7284 22.6112 22.4262C22.3288 22.3193 22.0445 22.2037 21.7696 22.0924C21.4528 21.9641 21.1276 21.8318 20.8037 21.7118C19.9978 21.4132 19.2814 21.4302 18.6133 21.7637C18.4365 21.8558 18.2647 21.9571 18.0984 22.067C18.0192 22.1169 17.94 22.1684 17.858 22.2179L17.8129 22.2452L17.7337 22.189C17.7052 22.1688 17.6739 22.1462 17.6434 22.1225C16.8347 21.5007 15.9528 21.3463 15.0209 21.6627C14.6882 21.7759 14.356 21.9138 14.0348 22.0468C13.8677 22.1165 13.6946 22.1882 13.5231 22.2559C13.0051 22.4603 12.4491 22.6603 11.8495 22.669C11.4508 22.6733 11.0543 22.6099 10.6769 22.4813C10.5157 22.4278 10.3834 22.4623 10.2939 22.5799C10.2044 22.6975 10.2012 22.829 10.2939 22.9759C10.3628 23.084 10.4373 23.1921 10.5093 23.2967C10.5707 23.3862 10.6345 23.4785 10.6947 23.5715C10.7303 23.6287 10.7482 23.6951 10.7462 23.7624C10.7426 23.8709 10.7347 23.981 10.7268 24.0872C10.7068 24.288 10.7024 24.49 10.7137 24.6915C10.7509 25.2372 10.987 25.7504 11.377 26.1338C11.6612 26.4254 12.0442 26.6 12.4507 26.6233L12.4994 26.6261L12.5188 26.6709C12.5212 26.6768 12.5235 26.6811 12.5251 26.6847C12.5337 26.6995 12.539 26.716 12.5406 26.733C12.5453 26.7833 12.5489 26.8344 12.5517 26.8851C12.5786 27.3778 12.7045 27.7916 12.9362 28.1496C13.3394 28.7726 13.8546 29.0553 14.5104 29.0142C14.5935 29.0066 14.6759 28.9934 14.7571 28.9745C14.7908 28.9674 14.8225 28.9611 14.8514 28.9559L14.9076 28.9464L14.9346 28.9967C14.9845 29.0898 15.0312 29.1848 15.0763 29.2763C15.1651 29.4702 15.2698 29.6565 15.3892 29.8331C15.6759 30.2292 16.072 30.4834 16.5048 30.548C16.9155 30.6086 17.3218 30.4969 17.6806 30.224C17.7872 30.1448 17.8786 30.1448 17.9836 30.2268C18.2662 30.4571 18.6237 30.5753 18.9879 30.5587C19.519 30.5345 19.9515 30.2905 20.2742 29.8331C20.3931 29.6542 20.4982 29.4664 20.5887 29.2716C20.6283 29.1947 20.6679 29.1163 20.7075 29.0375L20.6976 29.0161L20.7277 28.9765C20.7379 28.9642 20.7514 28.955 20.7666 28.95C20.7817 28.9449 20.798 28.9443 20.8136 28.948L20.9324 28.9536L20.9221 28.9726C21.2444 29.0565 21.5857 29.0276 21.8892 28.8906C22.4809 28.6237 22.8559 28.1381 23.0377 27.4019C23.0735 27.2424 23.0999 27.081 23.1169 26.9184C23.126 26.8435 23.1355 26.7663 23.1466 26.6903L23.1557 26.6285L23.2179 26.6229C23.8028 26.5722 24.2662 26.278 24.5953 25.7489C24.9517 25.1762 25.0614 24.5394 24.9307 23.8012C24.9192 23.7172 24.9368 23.6318 24.9806 23.5593C25.0935 23.3807 25.2135 23.2005 25.3299 23.0262ZM11.5406 23.3034C12.5101 23.368 13.3802 23.0072 14.2217 22.6579L14.3956 22.5858C14.8756 22.3878 15.2498 22.2627 15.6102 22.1799C16.1472 22.0563 16.6854 22.2033 17.2549 22.6286C17.3341 22.6888 17.4133 22.7541 17.4878 22.8171L17.5717 22.8872C17.7666 23.0488 17.8858 23.0492 18.1044 22.8872L18.144 22.8579C18.4105 22.6599 18.6857 22.4591 18.9836 22.3035C19.3705 22.1019 19.8057 22.0714 20.2417 22.2147C20.6778 22.3581 21.1364 22.5316 21.7011 22.7621C22.4444 23.0666 23.2456 23.3593 24.1347 23.3007L24.301 23.29L24.2044 23.4258L24.1814 23.4595C24.1691 23.4805 24.1542 23.4999 24.1371 23.5173C23.3529 24.2697 22.5237 24.7054 21.6025 24.8527C21.3547 24.8928 21.1042 24.9131 20.8532 24.9137C19.8421 24.9137 18.9392 24.5636 18.1602 23.8678C17.8858 23.6222 17.7709 23.6222 17.5135 23.8678C16.9195 24.4329 16.1844 24.7636 15.2684 24.8784C13.9116 25.0487 12.68 24.5937 11.503 23.4888C11.4899 23.4754 11.4799 23.4593 11.4737 23.4416C11.4713 23.4349 11.4677 23.4262 11.4622 23.4143L11.4064 23.2931L11.5406 23.3034ZM24.3497 24.4048C24.3418 24.4559 24.3351 24.505 24.3287 24.5521C24.3145 24.6531 24.3014 24.7501 24.2816 24.8432C24.2271 25.1222 24.1014 25.3825 23.9169 25.5988C23.6995 25.8523 23.4337 25.9826 23.1276 25.9857C22.7193 25.9901 22.4773 26.3532 22.4793 26.7017C22.4817 27.1374 22.3882 27.4978 22.1942 27.8027C21.9169 28.2383 21.5767 28.4217 21.1534 28.3663C21.0673 28.3545 20.9832 28.331 20.9035 28.2965C20.8309 28.2659 20.7526 28.2511 20.6738 28.2529C20.5951 28.2548 20.5176 28.2733 20.4465 28.3072C20.3657 28.3458 20.2937 28.4005 20.2349 28.468C20.1761 28.5355 20.1318 28.6144 20.1047 28.6997C20.0227 28.967 19.9293 29.2704 19.7198 29.5215C19.5218 29.7591 19.2802 29.8969 19.0236 29.9175C18.7669 29.9381 18.5119 29.843 18.2806 29.6426C17.9717 29.3749 17.7064 29.3741 17.3935 29.6426C17.1753 29.8284 16.94 29.9246 16.7076 29.9246C16.6776 29.9246 16.6475 29.923 16.6177 29.9199C16.365 29.8925 16.1333 29.7496 15.9488 29.506C15.7951 29.304 15.6981 29.0637 15.632 28.8763C15.5472 28.6427 15.4676 28.4217 15.2312 28.3124C15.1082 28.2516 14.967 28.2389 14.8352 28.2767C14.0827 28.4886 13.5607 28.2074 13.3227 27.4641C13.2435 27.2166 13.2186 26.9532 13.198 26.6823C13.1738 26.3568 12.9952 26.1022 12.733 26.0182C12.6731 26.0003 12.611 25.9906 12.5485 25.9893C12.156 25.9731 11.8523 25.7845 11.6202 25.4131C11.4436 25.1303 11.3517 24.8095 11.3311 24.4036L11.3224 24.2361L11.457 24.3359C12.5093 25.1141 13.5691 25.5287 14.6063 25.5679C15.6625 25.6075 16.7361 25.2594 17.7959 24.5331L17.841 24.5022L17.8858 24.5331C18.9404 25.261 20.0109 25.6087 21.0679 25.5683C22.1051 25.5287 23.1668 25.1117 24.2266 24.3303L24.3806 24.2167L24.3497 24.4048Z" fill="#fff"/>
<path d="M25.3299 23.0262L25.4424 22.8575V22.6912C25.3081 22.4492 25.1992 22.4064 24.9505 22.4931C24.1981 22.751 23.4088 22.7284 22.6112 22.4262C22.3288 22.3193 22.0445 22.2037 21.7696 22.0924C21.4528 21.9641 21.1276 21.8318 20.8037 21.7118C19.9978 21.4132 19.2814 21.4302 18.6133 21.7637C18.4365 21.8558 18.2647 21.9571 18.0984 22.067C18.0192 22.1169 17.94 22.1684 17.858 22.2179L17.8129 22.2452L17.7337 22.189C17.7052 22.1688 17.6739 22.1462 17.6434 22.1225C16.8347 21.5007 15.9528 21.3463 15.0209 21.6627C14.6882 21.7759 14.356 21.9138 14.0348 22.0468C13.8677 22.1165 13.6946 22.1882 13.5231 22.2559C13.0051 22.4603 12.4491 22.6603 11.8495 22.669C11.4508 22.6733 11.0543 22.6099 10.6769 22.4813C10.5157 22.4278 10.3834 22.4623 10.2939 22.5799C10.2044 22.6975 10.2012 22.829 10.2939 22.9759C10.3628 23.084 10.4373 23.1921 10.5093 23.2967C10.5707 23.3862 10.6345 23.4785 10.6947 23.5715C10.7303 23.6287 10.7482 23.6951 10.7462 23.7624C10.7426 23.8709 10.7347 23.981 10.7268 24.0872C10.7068 24.288 10.7024 24.49 10.7137 24.6915C10.7509 25.2372 10.987 25.7504 11.377 26.1338C11.6612 26.4254 12.0442 26.6 12.4507 26.6233L12.4994 26.6261L12.5188 26.6709C12.5212 26.6768 12.5235 26.6811 12.5251 26.6847C12.5337 26.6995 12.539 26.716 12.5406 26.733C12.5453 26.7833 12.5489 26.8344 12.5517 26.8851C12.5786 27.3778 12.7045 27.7916 12.9362 28.1496C13.3394 28.7726 13.8546 29.0553 14.5104 29.0142C14.5935 29.0066 14.6759 28.9934 14.7571 28.9745C14.7908 28.9674 14.8225 28.9611 14.8514 28.9559L14.9076 28.9464L14.9346 28.9967C14.9845 29.0898 15.0312 29.1848 15.0763 29.2763C15.1651 29.4702 15.2698 29.6565 15.3892 29.8331C15.6759 30.2292 16.072 30.4834 16.5048 30.548C16.9155 30.6086 17.3218 30.4969 17.6806 30.224C17.7872 30.1448 17.8786 30.1448 17.9836 30.2268C18.2662 30.4571 18.6237 30.5753 18.9879 30.5587C19.519 30.5345 19.9515 30.2905 20.2742 29.8331C20.3931 29.6542 20.4982 29.4664 20.5887 29.2716C20.6283 29.1947 20.6679 29.1163 20.7075 29.0375L20.6976 29.0161L20.7277 28.9765C20.7379 28.9642 20.7514 28.955 20.7666 28.95C20.7817 28.9449 20.798 28.9443 20.8136 28.948L20.9324 28.9536L20.9221 28.9726C21.2444 29.0565 21.5857 29.0276 21.8892 28.8906C22.4809 28.6237 22.8559 28.1381 23.0377 27.4019C23.0735 27.2424 23.0999 27.081 23.1169 26.9184C23.126 26.8435 23.1355 26.7663 23.1466 26.6903L23.1557 26.6285L23.2179 26.6229C23.8028 26.5722 24.2662 26.278 24.5953 25.7489C24.9517 25.1762 25.0614 24.5394 24.9307 23.8012C24.9192 23.7172 24.9368 23.6318 24.9806 23.5593C25.0935 23.3807 25.2135 23.2005 25.3299 23.0262ZM11.5406 23.3034C12.5101 23.368 13.3802 23.0072 14.2217 22.6579L14.3956 22.5858C14.8756 22.3878 15.2498 22.2627 15.6102 22.1799C16.1472 22.0563 16.6854 22.2033 17.2549 22.6286C17.3341 22.6888 17.4133 22.7541 17.4878 22.8171L17.5717 22.8872C17.7666 23.0488 17.8858 23.0492 18.1044 22.8872L18.144 22.8579C18.4105 22.6599 18.6857 22.4591 18.9836 22.3035C19.3705 22.1019 19.8057 22.0714 20.2417 22.2147C20.6778 22.3581 21.1364 22.5316 21.7011 22.7621C22.4444 23.0666 23.2456 23.3593 24.1347 23.3007L24.301 23.29L24.2044 23.4258L24.1814 23.4595C24.1691 23.4805 24.1542 23.4999 24.1371 23.5173C23.3529 24.2697 22.5237 24.7054 21.6025 24.8527C21.3547 24.8928 21.1042 24.9131 20.8532 24.9137C19.8421 24.9137 18.9392 24.5636 18.1602 23.8678C17.8858 23.6222 17.7709 23.6222 17.5135 23.8678C16.9195 24.4329 16.1844 24.7636 15.2684 24.8784C13.9116 25.0487 12.68 24.5937 11.503 23.4888C11.4899 23.4754 11.4799 23.4593 11.4737 23.4416C11.4713 23.4349 11.4677 23.4262 11.4622 23.4143L11.4064 23.2931L11.5406 23.3034ZM24.3497 24.4048C24.3418 24.4559 24.3351 24.505 24.3287 24.5521C24.3145 24.6531 24.3014 24.7501 24.2816 24.8432C24.2271 25.1222 24.1014 25.3825 23.9169 25.5988C23.6995 25.8523 23.4337 25.9826 23.1276 25.9857C22.7193 25.9901 22.4773 26.3532 22.4793 26.7017C22.4817 27.1374 22.3882 27.4978 22.1942 27.8027C21.9169 28.2383 21.5767 28.4217 21.1534 28.3663C21.0673 28.3545 20.9832 28.331 20.9035 28.2965C20.8309 28.2659 20.7526 28.2511 20.6738 28.2529C20.5951 28.2548 20.5176 28.2733 20.4465 28.3072C20.3657 28.3458 20.2937 28.4005 20.2349 28.468C20.1761 28.5355 20.1318 28.6144 20.1047 28.6997C20.0227 28.967 19.9293 29.2704 19.7198 29.5215C19.5218 29.7591 19.2802 29.8969 19.0236 29.9175C18.7669 29.9381 18.5119 29.843 18.2806 29.6426C17.9717 29.3749 17.7064 29.3741 17.3935 29.6426C17.1753 29.8284 16.94 29.9246 16.7076 29.9246C16.6776 29.9246 16.6475 29.923 16.6177 29.9199C16.365 29.8925 16.1333 29.7496 15.9488 29.506C15.7951 29.304 15.6981 29.0637 15.632 28.8763C15.5472 28.6427 15.4676 28.4217 15.2312 28.3124C15.1082 28.2516 14.967 28.2389 14.8352 28.2767C14.0827 28.4886 13.5607 28.2074 13.3227 27.4641C13.2435 27.2166 13.2186 26.9532 13.198 26.6823C13.1738 26.3568 12.9952 26.1022 12.733 26.0182C12.6731 26.0003 12.611 25.9906 12.5485 25.9893C12.156 25.9731 11.8523 25.7845 11.6202 25.4131C11.4436 25.1303 11.3517 24.8095 11.3311 24.4036L11.3224 24.2361L11.457 24.3359C12.5093 25.1141 13.5691 25.5287 14.6063 25.5679C15.6625 25.6075 16.7361 25.2594 17.7959 24.5331L17.841 24.5022L17.8858 24.5331C18.9404 25.261 20.0109 25.6087 21.0679 25.5683C22.1051 25.5287 23.1668 25.1117 24.2266 24.3303L24.3806 24.2167L24.3497 24.4048Z" stroke="#fff" stroke-width="0.407549" mask="url(#path-3-outside-1_1_74)"/>
<path d="M23.7999 13.3855L22.6501 10.8495C22.558 10.6473 22.5227 10.4239 22.5481 10.2032C22.5734 9.98249 22.6584 9.77285 22.7939 9.5968C22.9294 9.42074 23.1103 9.28492 23.3172 9.20392C23.524 9.12292 23.7491 9.0998 23.9681 9.13704L26.7437 9.60049L26.0919 8.63743C25.128 7.21692 23.7471 6.13045 22.1397 5.52785C20.5322 4.92525 18.7774 4.83622 17.1173 5.27302C13.5443 6.29243 12.1464 9.44321 11.6039 13.3855" stroke="#fff" stroke-width="1.26508" stroke-linecap="round" stroke-linejoin="round"/>
<path d="M25.4772 10.8584C25.4772 11.193 25.6101 11.5139 25.8467 11.7506C26.0833 11.9872 26.4042 12.1201 26.7389 12.1201C27.0735 12.1201 27.3944 11.9872 27.631 11.7506C27.8676 11.5139 28.0005 11.193 28.0005 10.8584C28.0005 10.5238 27.8676 10.2029 27.631 9.9663C27.3944 9.7297 27.0735 9.59677 26.7389 9.59677C26.4042 9.59677 26.0833 9.7297 25.8467 9.9663C25.6101 10.2029 25.4772 10.5238 25.4772 10.8584Z" stroke="#fff" stroke-width="1.26508" stroke-linecap="round" stroke-linejoin="round"/>
<path d="M10.34 13.3866H25.0593V15.0688H10.34V13.3866Z" stroke="#fff" stroke-width="1.26508" stroke-linecap="round" stroke-linejoin="round"/>
</svg>
