<svg width="36" height="36" viewBox="0 0 36 36" fill="none" xmlns="http://www.w3.org/2000/svg">
<path d="M23.0749 21.3476C23.2408 21.9837 23.3888 22.5493 23.5367 23.119C23.5904 23.3285 23.5602 23.5507 23.4525 23.7382C23.3448 23.9257 23.1681 24.0638 22.9601 24.123H22.9435C22.8372 24.1521 22.7261 24.1597 22.6168 24.1454C22.5074 24.1311 22.4021 24.0952 22.3068 24.0397C22.2115 23.9842 22.1283 23.9103 22.0619 23.8222C21.9955 23.7342 21.9473 23.6338 21.9202 23.527C21.6644 22.5106 21.3159 21.0766 21.1721 20.4847C21.1524 20.4029 21.116 20.3262 21.065 20.2593C21.0141 20.1924 20.9497 20.1368 20.8761 20.0961C20.3589 19.8112 19.2679 19.1281 18.9858 18.9649C18.9858 20.0284 18.9747 21.0046 18.9982 21.9796C18.9982 22.1178 19.1517 22.2741 19.2665 22.3944C19.9953 23.1287 20.7282 23.8589 21.4708 24.5987C21.5479 24.675 21.6088 24.7661 21.65 24.8665C21.6912 24.9669 21.7117 25.0746 21.7104 25.1831C21.7091 25.2916 21.686 25.3987 21.6425 25.4981C21.5989 25.5975 21.5358 25.6872 21.4569 25.7617L21.4431 25.7755C21.3656 25.8488 21.2743 25.906 21.1746 25.944C21.0749 25.9819 20.9687 25.9998 20.862 25.9966C20.7554 25.9934 20.6504 25.9691 20.5532 25.9253C20.4559 25.8814 20.3683 25.8187 20.2953 25.7409C19.8722 25.2915 19.4366 24.8338 19.001 24.376V25.7727C18.9992 25.9904 18.9119 26.1986 18.758 26.3525C18.6041 26.5064 18.3959 26.5937 18.1782 26.5955C17.9605 26.5937 17.7523 26.5064 17.5984 26.3525C17.4445 26.1986 17.3572 25.9904 17.3554 25.7727V24.5558L16.191 25.8004C16.1074 25.889 16.0066 25.9596 15.8947 26.0078C15.7828 26.056 15.6622 26.0809 15.5404 26.0809C15.4186 26.0809 15.298 26.056 15.1861 26.0078C15.0743 25.9596 14.9734 25.889 14.8898 25.8004L14.8773 25.7879C14.718 25.6191 14.6303 25.395 14.6329 25.1629C14.6355 24.9307 14.7281 24.7086 14.8912 24.5434C15.5674 23.8671 16.3722 23.0471 17.0761 22.3792C17.3333 22.1344 17.3526 21.9229 17.3374 21.5675C17.3374 21.5675 17.3277 19.908 17.3277 18.9829C16.6363 19.3812 16.0057 19.7214 15.407 20.1113C15.2687 20.2026 15.212 20.457 15.1594 20.6479C14.8967 21.6062 14.6409 22.5673 14.3795 23.5436C14.3512 23.6494 14.3021 23.7486 14.2352 23.8354C14.1683 23.9222 14.0849 23.9949 13.9898 24.0493C13.8946 24.1037 13.7896 24.1387 13.6809 24.1523C13.5722 24.1659 13.4618 24.1578 13.3562 24.1285H13.3396C13.1299 24.0702 12.9515 23.9319 12.8429 23.7433C12.7343 23.5547 12.7041 23.331 12.7588 23.1204C12.9068 22.5534 13.0547 21.9823 13.2165 21.3628L12.1102 21.9934C11.9204 22.1015 11.6955 22.1303 11.4845 22.0736C11.2735 22.0169 11.0933 21.8792 10.9832 21.6905L10.9749 21.6739C10.8647 21.4848 10.8337 21.2599 10.8886 21.048C10.9435 20.8361 11.0799 20.6545 11.2681 20.5428L12.3605 19.8928L10.5628 19.3909C10.3693 19.3367 10.2046 19.2091 10.1038 19.0353C10.0031 18.8614 9.97424 18.655 10.0235 18.4602L10.0609 18.3219C10.1105 18.126 10.2357 17.9578 10.4091 17.8542C10.5825 17.7505 10.79 17.7198 10.986 17.7688H10.9943C12.0231 18.0453 13.0506 18.3219 14.0822 18.5916C14.2537 18.6358 14.4791 18.669 14.6201 18.5916C15.2272 18.2763 15.8121 17.9167 16.4911 17.5226C15.7997 17.123 15.1912 16.7524 14.5634 16.4163C14.45 16.3555 14.2606 16.4011 14.1168 16.4385C13.3341 16.639 11.9249 17.0013 11.0385 17.2253C10.8282 17.2782 10.6055 17.2459 10.419 17.1353C10.2325 17.0246 10.0973 16.8448 10.0429 16.6348V16.6182C9.98881 16.4091 10.0195 16.187 10.1282 16.0003C10.237 15.8136 10.415 15.6774 10.6237 15.6212L12.3896 15.1248L11.2833 14.4707C11.0946 14.3594 10.9577 14.178 10.9022 13.9661C10.8468 13.7542 10.8774 13.5289 10.9874 13.3395L10.997 13.3229C11.1069 13.134 11.287 12.996 11.498 12.9391C11.709 12.8821 11.934 12.9107 12.1241 13.0187L13.2303 13.6493C13.0713 13.0297 12.9275 12.4628 12.7823 11.8999C12.7278 11.6903 12.7574 11.4676 12.8649 11.2794C12.9724 11.0913 13.1492 10.9527 13.3576 10.8932H13.3742C13.5854 10.833 13.8119 10.8591 14.004 10.9656C14.1961 11.0721 14.3381 11.2505 14.3989 11.4616L15.1981 14.7002C15.2226 14.7992 15.2686 14.8916 15.3329 14.9707C15.3972 15.0499 15.4782 15.1138 15.5701 15.158C16.0901 15.4055 17.0705 15.9061 17.3208 16.0513C17.3208 14.9892 17.3319 14.0129 17.3098 13.0394C17.3098 12.9011 17.1576 12.7435 17.0443 12.6246C16.3141 11.8875 15.5798 11.1574 14.8317 10.412C14.7552 10.3357 14.6948 10.2449 14.6542 10.1448C14.6135 10.0447 14.5934 9.93747 14.5951 9.82946C14.5968 9.72146 14.6202 9.61489 14.6639 9.51612C14.7077 9.41735 14.7708 9.3284 14.8497 9.25456L14.8621 9.24211C15.0172 9.09664 15.2237 9.01858 15.4362 9.02506C15.6488 9.03155 15.8501 9.12203 15.996 9.27668L17.3208 10.6747L17.2987 10.0843C17.2987 9.86421 17.3861 9.65317 17.5417 9.49757C17.6973 9.34197 17.9084 9.25456 18.1284 9.25456C18.3485 9.25456 18.5595 9.34197 18.7151 9.49757C18.8707 9.65317 18.9581 9.86421 18.9581 10.0843L18.9844 10.6747L20.175 9.29189C20.2533 9.20113 20.35 9.12813 20.4587 9.07779C20.5674 9.02746 20.6857 9.00094 20.8055 9.00002C20.9253 8.99911 21.0439 9.02381 21.1534 9.07248C21.2629 9.12115 21.3607 9.19266 21.4403 9.28221L21.4514 9.29604C21.5946 9.45677 21.6706 9.66637 21.6636 9.88153C21.6567 10.0967 21.5673 10.301 21.4141 10.4521C20.6646 11.1933 19.4781 12.3591 19.0729 12.7601C19.0278 12.8046 18.9923 12.8579 18.9686 12.9166C18.9448 12.9753 18.9332 13.0383 18.9346 13.1016C18.9429 13.7391 18.9692 15.6973 18.9692 16.0679C19.6606 15.6696 20.2912 15.3267 20.8941 14.9408C21.0241 14.8579 21.0808 14.6269 21.1278 14.4527C21.3919 13.4847 21.6505 12.5084 21.9174 11.5017C21.9733 11.2894 22.1111 11.1078 22.3006 10.9969C22.49 10.886 22.7158 10.8547 22.9283 10.9098H22.9449C23.0508 10.937 23.1504 10.9849 23.2378 11.0507C23.3251 11.1166 23.3986 11.199 23.454 11.2934C23.5094 11.3877 23.5456 11.492 23.5605 11.6004C23.5754 11.7088 23.5688 11.8191 23.5409 11.9248C23.3902 12.4973 23.2394 13.0698 23.0776 13.688L24.9085 12.6439C25.0987 12.5355 25.324 12.5067 25.5354 12.5637C25.7468 12.6206 25.927 12.7588 26.0369 12.9482L26.0452 12.9634C26.1553 13.1534 26.1855 13.3794 26.1293 13.5917C26.073 13.804 25.9349 13.9853 25.7452 14.0959L23.9364 15.1497L25.694 15.6364C25.9013 15.6938 26.0778 15.8303 26.1854 16.0165C26.293 16.2028 26.3231 16.4238 26.2693 16.6321V16.6473C26.2417 16.7542 26.1929 16.8545 26.1256 16.942C26.0583 17.0296 25.974 17.1026 25.8778 17.1568C25.7815 17.2109 25.6753 17.245 25.5655 17.257C25.4558 17.269 25.3447 17.2587 25.239 17.2267C24.242 16.9266 22.8218 16.473 22.2244 16.2822C22.1392 16.2544 22.0488 16.2462 21.96 16.2582C21.8712 16.2701 21.7862 16.302 21.7114 16.3513C21.1582 16.7123 19.8556 17.5143 19.8556 17.5143C20.5221 17.9029 21.1264 18.2749 21.7529 18.6068C21.8773 18.6732 22.0875 18.6137 22.2479 18.5736C23.2367 18.3191 24.224 18.0578 25.2418 17.7895C25.3476 17.7612 25.4579 17.7541 25.5665 17.7686C25.675 17.7831 25.7796 17.819 25.8742 17.8742C25.9689 17.9293 26.0516 18.0026 26.1178 18.0899C26.1839 18.1772 26.2321 18.2767 26.2596 18.3828V18.398C26.3154 18.6099 26.285 18.8353 26.1752 19.025C26.0653 19.2147 25.8849 19.3531 25.6732 19.4102L23.9281 19.8832L25.7341 20.9479C25.9234 21.059 26.0609 21.2406 26.1166 21.4528C26.1723 21.6651 26.1417 21.8908 26.0314 22.0805L26.0231 22.0943C25.9129 22.2845 25.7318 22.4232 25.5195 22.48C25.3071 22.5368 25.0809 22.507 24.8906 22.3972L23.0749 21.3476Z" fill="#fff"  stroke-width="0.7" stroke-miterlimit="16"/>
</svg>
