<svg width="36" height="36" viewBox="0 0 36 36" fill="none" xmlns="http://www.w3.org/2000/svg">
<path d="M6.0019 18.0353C6.11581 17.5613 6.18668 17.0715 6.35248 16.6159C6.89608 15.1249 7.89531 14.0282 9.34385 13.3701C9.66469 13.2246 9.87795 13.0689 9.92478 12.6968C9.96149 12.4088 10.0697 12.131 10.1469 11.8488C10.2994 11.2925 10.7101 11.054 11.2702 11.1989C11.7296 11.3172 12.1871 11.4419 12.6459 11.5628C12.6721 11.5641 12.6984 11.5631 12.7244 11.5596C12.6662 11.283 12.5921 11.0128 12.5554 10.7369C12.4131 9.67756 12.5491 8.6739 13.149 7.75567C13.8274 6.71721 15.0665 6.83808 15.643 7.57975C15.9683 7.99805 15.9993 8.49228 15.9594 8.98272C15.8733 10.1123 15.3747 11.0559 14.5729 11.8444C14.5183 11.8914 14.4599 11.9337 14.3982 11.9709L14.4254 12.0393C14.64 12.1026 14.8545 12.1658 15.0697 12.2234C15.3589 12.3032 15.6519 12.3721 15.9392 12.4601C16.4239 12.6088 16.6473 13.0012 16.5277 13.4897C16.4378 13.8586 16.3467 14.2276 16.2322 14.5889C16.1689 14.7927 16.2043 14.942 16.3334 15.1085C17.1143 16.1025 17.5312 17.3339 17.5149 18.5979C17.5079 21.1292 15.8664 23.3839 13.4173 24.0819C11.1208 24.7369 9.12046 24.1598 7.48271 22.4309C6.64991 21.5513 6.17909 20.4761 6.04367 19.2668C6.03351 19.2218 6.01888 19.1779 6 19.1358L6.0019 18.0353ZM16.2379 19.8977C16.3644 19.7813 16.5334 19.6996 16.5638 19.5813C16.714 18.9707 16.7287 18.3345 16.6068 17.7176C16.1265 15.0882 13.7135 13.36 11.1733 13.6979C9.22361 13.9574 7.89025 15.0401 7.14099 16.857C7.03847 17.1057 7.06062 17.2892 7.29286 17.448C7.74343 17.2506 8.19844 17.0487 8.65597 16.8506C8.98883 16.707 9.13059 16.7456 9.34828 17.0405C9.60141 17.3778 9.85454 17.7119 10.09 18.0593C10.1988 18.2201 10.2906 18.2593 10.4734 18.1688C10.8417 17.9866 11.2227 17.8296 11.5999 17.6626C11.977 17.4955 12.0985 17.5322 12.3447 17.8651L13.225 19.0554C13.6819 18.8554 14.1223 18.6612 14.564 18.4688C14.9557 18.2979 15.0791 18.3308 15.3291 18.6681C15.6171 19.056 15.9037 19.4452 16.2379 19.8977ZM11.7764 18.4985C11.3132 18.701 10.8721 18.8947 10.4304 19.087C10.0469 19.2547 9.91846 19.2187 9.66722 18.8776C9.37739 18.484 9.08713 18.0912 8.79646 17.6993C8.35348 17.8935 7.93898 18.091 7.51182 18.2568C7.31122 18.3346 7.08783 18.3517 6.85368 18.4004C6.67016 20.135 7.83266 22.553 10.3684 23.3061C12.7478 24.0136 15.1855 22.7891 16.1018 20.8767C15.9271 20.7254 15.7449 20.6052 15.612 20.4445C15.3652 20.1458 15.1393 19.8281 14.919 19.5079C14.8089 19.3484 14.7165 19.2914 14.5197 19.3927C14.1685 19.5731 13.7983 19.7167 13.4363 19.8755C13.0174 20.0591 12.8997 20.0281 12.6333 19.6648C12.3523 19.2813 12.0707 18.8991 11.7764 18.4985ZM13.6382 11.6146C13.9135 11.3191 14.1805 11.0875 14.3799 10.8084C14.895 10.0857 15.2658 9.30989 15.1038 8.37711C15.0564 8.09993 14.9096 7.9259 14.6507 7.86009C14.3919 7.79428 14.1445 7.82275 13.9685 8.06133C13.1516 9.15675 13.2199 10.3338 13.6382 11.6146ZM15.731 13.26L10.9721 11.9848C10.8911 12.2949 10.8164 12.5822 10.731 12.9113C11.6075 12.7683 12.4396 12.7923 13.2623 13.0151C14.0789 13.2415 14.8367 13.6422 15.4835 14.1896C15.5721 13.858 15.6481 13.5713 15.731 13.2594V13.26Z" fill="#fff"/>
<path d="M21.9738 13.6842C21.7599 13.4444 21.5492 13.2305 21.3657 12.9957C20.8151 12.2939 20.4658 11.5016 20.4164 10.6062C20.3823 10.0043 20.4475 9.41392 20.9702 8.98803C21.5783 8.49253 22.6288 8.46025 23.2483 9.42152C23.8318 10.3296 23.9634 11.32 23.8318 12.3604C23.7957 12.6458 23.7173 12.9255 23.6521 13.2362C24.1254 13.1096 24.5747 12.9919 25.0222 12.8704C25.7031 12.6863 26.0771 12.8983 26.2644 13.5817C26.3599 13.9323 26.4403 14.2879 26.5523 14.6335C26.5947 14.7447 26.6784 14.8354 26.7858 14.8866C27.7317 15.2692 28.559 15.8962 29.183 16.7034C29.8929 17.5975 30.3081 18.6897 30.3714 19.8296C30.5195 22.4533 29.0678 24.6815 26.6194 25.6345C23.7299 26.759 20.2791 25.1877 19.2394 22.2653C18.523 20.253 18.8154 18.3874 20.0962 16.6788C20.1393 16.6286 20.1684 16.5679 20.1804 16.5029C20.1924 16.4379 20.1869 16.3708 20.1646 16.3086C20.0494 15.9225 19.9507 15.5308 19.8545 15.1397C19.7279 14.6335 19.9735 14.2285 20.481 14.0873C20.9708 13.95 21.465 13.8209 21.9738 13.6842ZM19.8893 21.4863L29.3817 18.9424C28.5533 16.0877 25.6233 14.5816 22.8832 15.615C20.2038 16.6275 19.2558 19.4632 19.8893 21.4863ZM20.0848 22.2976C20.4133 22.7463 20.7177 23.1576 21.0157 23.5721C21.0967 23.6848 21.1828 23.6987 21.3182 23.6614C22.1479 23.4304 22.9813 23.212 23.8128 22.9899C25.6067 22.5102 27.3997 22.0295 29.1918 21.5477C29.2703 21.5262 29.3817 21.4617 29.3962 21.3965C29.5404 20.8675 29.5804 20.3156 29.5139 19.7714L20.0848 22.2976ZM28.9969 22.4659L21.9966 24.3416C24.0039 25.799 27.5686 25.3143 28.9982 22.4659H28.9969ZM22.7427 13.2172C23.0398 12.5061 23.1229 11.7239 22.9819 10.9662C22.8959 10.4783 22.7187 10.0392 22.3845 9.67022C22.213 9.48037 22.0048 9.4405 21.7574 9.50125C21.5283 9.55821 21.3676 9.6873 21.3049 9.90943C21.2613 10.0618 21.241 10.2199 21.2448 10.3783C21.2771 11.5605 21.8568 12.4584 22.7427 13.2172ZM20.9025 15.827C22.3149 14.6879 23.8843 14.2677 25.6581 14.5544L25.4082 13.6304L20.6544 14.905C20.7367 15.2226 20.812 15.5023 20.8999 15.827H20.9025Z" fill="#fff"/>
</svg>
